<?xml version="1.0" encoding="utf-8"?>
<!-- Generator: Adobe Illustrator 22.0.1, SVG Export Plug-In . SVG Version: 6.00 Build 0)  -->
<svg version="1.1" id="Warstwa_2" xmlns="http://www.w3.org/2000/svg" xmlns:xlink="http://www.w3.org/1999/xlink" x="0px" y="0px"
	 viewBox="0 0 493.5 297.6" style="enable-background:new 0 0 493.5 297.6;" xml:space="preserve">
<style type="text/css">
	.st0{fill:none;stroke:#000000;stroke-width:2;stroke-miterlimit:10;}
	.st1{fill:none;stroke:#000000;stroke-miterlimit:10;}
	.st2{fill:none;stroke:#000000;stroke-width:0.5;stroke-miterlimit:10;}
	.st3{fill:none;stroke:#000000;stroke-width:0.75;stroke-miterlimit:10;}
</style>
<ellipse transform="matrix(0.9985 -5.398279e-02 5.398279e-02 0.9985 -3.1015 5.243)" class="st0" cx="95.5" cy="60" rx="94.6" ry="31"/>
<path class="st1" d="M1.5,68.2l7.4,49.4c0.7,3.8,16.3,15.6,24.4,19"/>
<path class="st1" d="M161.8,183.7"/>
<path class="st0" d="M162.5,146.7c20.9,5.1,50.1,15.8,77.3,41c3.7,3.5,5.2,5.1,8.3,8c16.4,15.1,44.2,32.3,93.7,39.7"/>
<path class="st1" d="M161.8,183.7c19.5,5.9,47.1,17.4,73.7,41.7c4,3.6,5.7,5.6,8.7,8.3c16.2,15.4,45.8,34.4,93.7,47.7"/>
<path class="st0" d="M162.5,146.7l-0.7,37V201c30.6,11.3,52.9,24,66.9,38.3c28.5,32.2,64.7,50.8,108,57.3l1.1-15.1l4-46"/>
<line class="st0" x1="427.1" y1="131.3" x2="264.3" y2="86.3"/>
<line class="st0" x1="265" y1="86.2" x2="161.8" y2="147.6"/>
<path class="st0" d="M5.1,90.7l21.1,10.7l7.2,35.2c20.3,7.4,38.2,10.3,54.8,11c-1.6-12.9-3.2-25.8-4.8-38.7
	c26.7-0.4,50.8-4.4,72.7-10.2l1.8,31.3l11-5.8l-0.8-40.9c3.1-0.7,7.4-2.3,12.2-5.4c5.1-3.2,8.5-6.9,10.5-9.5l-0.5-13.3"/>
<polyline class="st0" points="336.8,296.5 419.8,181.4 426.1,133.6 341.8,235.4 "/>
<line class="st1" x1="167.8" y1="83.2" x2="232" y2="106"/>
<path class="st1" d="M88.2,147.6c28.3-2.7,54.2-8.1,69.7-17.6"/>
<polyline class="st1" points="281,68.7 281,58 323.8,36 331,38.2 339,41 343.4,38.9 406.3,5.2 439.6,12.8 344.5,76 281,58 "/>
<line class="st2" x1="180.4" y1="190.4" x2="180.4" y2="152"/>
<line class="st2" x1="187.2" y1="193.3" x2="187.2" y2="154.6"/>
<polyline class="st2" points="174.3,187.9 174.3,187.9 174.3,150 "/>
<line class="st2" x1="168" y1="185.7" x2="168" y2="148.1"/>
<line class="st2" x1="193.2" y1="196.3" x2="193.2" y2="157.1"/>
<line class="st2" x1="198.6" y1="199.1" x2="198.6" y2="159.6"/>
<line class="st2" x1="203.9" y1="202.1" x2="203.9" y2="162.3"/>
<line class="st2" x1="208.7" y1="205" x2="208.7" y2="164.9"/>
<line class="st2" x1="213.8" y1="208.3" x2="213.8" y2="167.9"/>
<line class="st2" x1="218.9" y1="211.9" x2="218.9" y2="171.2"/>
<line class="st2" x1="223.4" y1="215.3" x2="223.4" y2="174.3"/>
<line class="st2" x1="228.7" y1="219.4" x2="228.7" y2="178.2"/>
<line class="st2" x1="233.7" y1="223.7" x2="233.7" y2="182.3"/>
<line class="st2" x1="239.2" y1="228.9" x2="239.2" y2="187.1"/>
<path class="st2" d="M244.2,191.9"/>
<line class="st2" x1="245.6" y1="234.7" x2="246.2" y2="193.9"/>
<line class="st2" x1="252.2" y1="240.3" x2="252.2" y2="199.2"/>
<line class="st2" x1="259.3" y1="245.7" x2="260.1" y2="205.4"/>
<line class="st2" x1="267" y1="251" x2="267.9" y2="210.6"/>
<line class="st2" x1="275.8" y1="256.2" x2="277.4" y2="216.1"/>
<line class="st2" x1="285" y1="260.9" x2="287.2" y2="220.5"/>
<line class="st2" x1="293.6" y1="265.4" x2="296.6" y2="224.2"/>
<line class="st2" x1="303.7" y1="269.8" x2="306.7" y2="227.6"/>
<line class="st2" x1="314.7" y1="274.1" x2="318" y2="231.3"/>
<line class="st2" x1="326" y1="277.8" x2="329.2" y2="233.8"/>
<path class="st2" d="M333.4,240.8"/>
<polyline class="st2" points="162.3,161 138.8,150.3 154.5,134.9 173.6,123.6 181.1,126.6 181.1,118.7 187.4,115.7 187.4,115.9 
	187.4,126.1 181.1,130.2 181.1,126.7 "/>
<path class="st2" d="M187.1,115.7"/>
<polyline class="st2" points="200.3,120.4 200.3,124.4 191.4,130.1 191.5,126.2 200.1,120.5 187.5,115.6 "/>
<path class="st2" d="M213.8,143.7"/>
<polyline class="st1" points="214.2,99.7 214.2,105 214.2,116.2 "/>
<line class="st2" x1="168.2" y1="89.3" x2="214.2" y2="105"/>
<line class="st2" x1="168.3" y1="95.4" x2="214.2" y2="111.2"/>
<line class="st2" x1="168.4" y1="101.4" x2="213" y2="116.9"/>
<line class="st2" x1="168.5" y1="107" x2="206.5" y2="120.7"/>
<line class="st2" x1="168.6" y1="112" x2="183.3" y2="117.7"/>
<polyline class="st3" points="439.6,12.8 431.3,78.4 410.2,95.7 405.2,125.2 "/>
<path class="st1" d="M493.5,76"/>
<path class="st2" d="M87.4,141.6c29.9-1.7,55.8-9.3,70-15.8"/>
<line class="st2" x1="98.2" y1="140.6" x2="94.2" y2="108.5"/>
<line class="st2" x1="96.7" y1="108.5" x2="100.9" y2="140.2"/>
<line class="st2" x1="120.9" y1="105.9" x2="124.6" y2="136.5"/>
<line class="st2" x1="127.2" y1="135.7" x2="123.6" y2="105.5"/>
<line class="st2" x1="145.6" y1="101.4" x2="148.9" y2="129"/>
<line class="st2" x1="151.6" y1="128" x2="148.7" y2="100.7"/>
<path class="st2" d="M32.3,130.4c-1.6-0.8-3.2-1.6-4.7-2.4c-0.3-0.2-0.7-0.4-1-0.6c-8.1-4.6-14.9-10-18.6-15.7"/>
<line class="st2" x1="23.4" y1="100" x2="29" y2="128.7"/>
<line class="st2" x1="21.8" y1="99.2" x2="27.2" y2="127.7"/>
<line class="st2" x1="15.5" y1="95.9" x2="20.2" y2="123.4"/>
<line class="st2" x1="14.1" y1="95.2" x2="18.8" y2="122.4"/>
<line class="st2" x1="11.5" y1="116.1" x2="7.5" y2="91.9"/>
<line class="st2" x1="6.5" y1="91.3" x2="10.4" y2="114.9"/>
<polyline class="st3" points="138.8,30.3 254.5,0.4 301.8,12.1 301.8,47.2 "/>
<line class="st3" x1="211.4" y1="50.1" x2="301.8" y2="12.1"/>
<line class="st3" x1="344.5" y1="76" x2="342.7" y2="108"/>
<line class="st3" x1="281" y1="68.7" x2="281" y2="90.9"/>
<line class="st0" x1="176" y1="39.9" x2="281" y2="66.9"/>
<polygon class="st2" points="232,132.2 343.6,171.2 363.8,150 257.9,115.2 244.2,116.2 "/>
<line class="st2" x1="244.2" y1="116.2" x2="352.6" y2="153.5"/>
<polyline class="st2" points="343.6,171.2 352.6,153.5 363.8,150 "/>
<path class="st2" d="M97.7,136.5"/>
<path class="st2" d="M83.9,113"/>
<path class="st2" d="M98.8,56.1V45.7l30,0.8c10.3,5.5,9.3,11.4-4.4,17.8L98.8,56.1z"/>
<line class="st2" x1="124.4" y1="64.2" x2="98.8" y2="45.7"/>
<line class="st2" x1="154.5" y1="134.9" x2="171.9" y2="141.6"/>
<line class="st2" x1="138.8" y1="150.3" x2="68.8" y2="191.9"/>
<line class="st2" x1="109.3" y1="217.5" x2="161.9" y2="182.7"/>
<line class="st2" x1="140.5" y1="148.6" x2="161.8" y2="158.1"/>
<line class="st2" x1="142.2" y1="147" x2="161.7" y2="155.6"/>
<line class="st2" x1="143.9" y1="145.3" x2="162.2" y2="153.1"/>
<line class="st2" x1="145.6" y1="143.6" x2="161.8" y2="150.3"/>
<line class="st2" x1="147.2" y1="142.1" x2="162.2" y2="148.4"/>
<line class="st2" x1="148.6" y1="140.6" x2="163.3" y2="146.7"/>
<line class="st2" x1="150.1" y1="139.2" x2="165.2" y2="145.7"/>
<line class="st2" x1="151.6" y1="137.7" x2="167.4" y2="144.4"/>
<line class="st2" x1="153.2" y1="136.1" x2="169.6" y2="142.9"/>
</svg>
